<svg version="1.0" xmlns="http://www.w3.org/2000/svg"
 width="1500.000000pt" height="1500.000000pt" viewBox="0 0 1500.000000 1500.000000"
 preserveAspectRatio="xMidYMid meet">

<g transform="translate(0.000000,1500.000000) scale(0.100000,-0.100000)"
fill="#000000" stroke="none">
<path d="M8305 11030 c-33 -5 -85 -11 -116 -14 -30 -3 -86 -12 -124 -20 -38
-8 -73 -12 -77 -10 -3 2 -49 0 -100 -6 -51 -6 -188 -15 -303 -20 -226 -10
-341 -28 -415 -65 -41 -21 -48 -22 -72 -9 -42 22 -174 37 -278 31 -166 -10
-273 -62 -406 -199 -94 -97 -151 -190 -188 -307 -76 -239 -40 -478 94 -624 29
-31 58 -57 65 -57 8 0 16 -4 20 -9 3 -5 -34 -82 -81 -171 -48 -89 -92 -177
-99 -197 -9 -26 -21 -39 -46 -48 -111 -40 -309 -140 -364 -185 -27 -22 -66
-53 -85 -69 -47 -38 -127 -176 -156 -268 -39 -122 -31 -385 18 -551 12 -40 25
-75 30 -78 16 -10 7 -46 -22 -89 -16 -24 -30 -48 -30 -54 0 -5 -6 -14 -13 -18
-7 -4 -54 -64 -105 -133 -50 -69 -129 -174 -174 -235 -114 -154 -141 -220
-146 -361 -4 -98 -1 -118 21 -182 30 -87 126 -241 188 -302 71 -70 174 -120
277 -135 48 -7 91 -10 97 -7 5 3 122 7 260 8 286 2 388 17 457 66 13 9 20 10
28 2 8 -8 -2 -38 -39 -110 -66 -130 -111 -231 -111 -248 0 -7 -6 -19 -14 -26
-8 -6 -27 -44 -42 -83 -15 -40 -31 -76 -35 -82 -12 -19 -48 -140 -58 -200 -6
-33 -15 -87 -22 -120 -6 -33 -12 -76 -13 -95 l-1 -35 -70 3 c-202 9 -343 -6
-443 -49 -42 -18 -139 -75 -152 -89 -3 -3 -17 -13 -31 -22 -44 -28 -120 -145
-147 -227 -22 -66 -25 -94 -26 -211 0 -190 37 -313 123 -411 27 -31 41 -58 46
-89 12 -73 80 -200 158 -293 34 -41 133 -125 241 -204 76 -55 188 -103 249
-107 17 -1 38 -5 45 -10 25 -15 204 -7 283 13 119 31 281 120 378 208 89 81
154 177 192 286 26 76 30 101 28 172 l-3 83 64 66 c71 74 110 131 130 191 15
45 136 199 240 304 31 31 120 137 120 142 0 2 62 67 136 144 74 77 143 152
152 168 9 15 21 27 26 27 24 0 350 356 509 555 121 153 208 242 283 290 32 21
107 87 166 145 l107 107 76 6 c80 6 225 44 225 59 0 5 5 6 11 2 6 -3 49 20 96
52 63 43 101 79 147 139 77 100 88 118 111 180 10 28 22 55 26 60 31 44 39
304 10 339 -19 23 -9 39 51 84 112 83 176 170 216 295 12 37 32 97 43 133 30
92 36 221 15 304 -45 177 -159 299 -394 421 -98 51 -187 73 -292 72 -52 0
-113 -3 -136 -6 -92 -12 -234 -65 -234 -87 0 -6 -7 -10 -16 -10 -51 0 -214
-161 -214 -211 0 -18 -27 -29 -72 -29 -15 0 -30 -4 -33 -10 -12 -19 -35 -10
-35 13 0 12 21 81 46 152 26 72 46 140 46 153 0 12 4 22 8 22 5 0 12 10 15 23
4 12 58 127 121 255 63 128 114 240 114 248 0 8 4 14 9 14 16 0 91 126 126
213 30 73 46 95 114 163 64 65 86 96 124 174 56 117 70 196 56 316 -17 155
-84 285 -187 367 -93 74 -106 82 -202 117 -47 18 -128 48 -180 67 -90 34 -102
36 -235 39 -77 1 -167 -2 -200 -6z"/>
</g>
</svg>
